<svg width="171" height="170" viewBox="0 0 171 170" fill="none" xmlns="http://www.w3.org/2000/svg">
<path fill-rule="evenodd" clip-rule="evenodd" d="M135.422 137.963L125.256 150.714L136.941 141.398L140.165 169.97L143.491 140.487L156.273 150.678L146.024 137.822L170.201 135.095L146.152 132.382L156.23 119.741L143.637 129.78L140.165 99L136.795 128.869L125.3 119.705L135.294 132.241L110 135.095L135.422 137.963Z" fill="#F1DEDE" fill-opacity="0.5"/>
<path fill-rule="evenodd" clip-rule="evenodd" d="M37.4338 87.4585L33.6615 92.1903L37.9977 88.7333L39.1938 99.3359L40.428 88.3955L45.1715 92.1771L41.368 87.4064L50.3398 86.3942L41.4155 85.3874L45.1552 80.6966L40.4824 84.422L39.1938 73L37.9433 84.0841L33.6778 80.6834L37.3865 85.3353L28 86.3942L37.4338 87.4585Z" fill="#F1DEDE"/>
</svg>
