<svg width="171" height="170" viewBox="0 0 171 170" fill="none" xmlns="http://www.w3.org/2000/svg">
<path fill-rule="evenodd" clip-rule="evenodd" d="M135.422 137.963L125.256 150.714L136.941 141.398L140.165 169.97L143.491 140.487L156.273 150.678L146.024 137.822L170.201 135.095L146.152 132.382L156.23 119.741L143.637 129.78L140.165 99L136.795 128.869L125.3 119.705L135.294 132.241L110 135.095L135.422 137.963Z" fill="#F1DEDE"/>
<path fill-rule="evenodd" clip-rule="evenodd" d="M69.5156 119.649L64.9108 125.425L70.2038 121.205L71.6639 134.147L73.1705 120.793L78.9607 125.409L74.3181 119.585L85.2695 118.35L74.3758 117.121L78.9409 111.395L73.2368 115.942L71.6639 102L70.1375 115.53L64.9307 111.379L69.4578 117.057L58 118.35L69.5156 119.649Z" fill="#F1DEDE"/>
<path fill-rule="evenodd" clip-rule="evenodd" d="M117.434 46.4585L113.661 51.1903L117.998 47.7333L119.194 58.3359L120.428 47.3955L125.171 51.1771L121.368 46.4064L130.34 45.3942L121.415 44.3874L125.155 39.6966L120.482 43.422L119.194 32L117.943 43.0841L113.678 39.6834L117.386 44.3353L108 45.3942L117.434 46.4585Z" fill="#F1DEDE" fill-opacity="0.5"/>
<path fill-rule="evenodd" clip-rule="evenodd" d="M37.4338 87.4585L33.6615 92.1903L37.9977 88.7333L39.1938 99.3359L40.428 88.3955L45.1715 92.1771L41.368 87.4064L50.3398 86.3942L41.4155 85.3874L45.1552 80.6966L40.4824 84.422L39.1938 73L37.9433 84.0841L33.6778 80.6834L37.3865 85.3353L28 86.3942L37.4338 87.4585Z" fill="#F1DEDE"/>
<path fill-rule="evenodd" clip-rule="evenodd" d="M64.0976 47.2699L56.461 56.8487L65.2391 49.8504L67.6605 71.3141L70.1592 49.166L79.7617 56.8215L72.0624 47.1641L90.2244 45.1152L72.1581 43.077L79.7288 33.5809L70.2692 41.1225L67.6606 18L65.1292 40.4382L56.494 33.5539L64.0022 42.9717L45 45.1154L64.0976 47.2699Z" fill="#F1DEDE"/>
</svg>
